<?xml version="1.0" standalone="no"?>
<!DOCTYPE svg PUBLIC "-//W3C//DTD SVG 20010904//EN"
 "http://www.w3.org/TR/2001/REC-SVG-20010904/DTD/svg10.dtd">
<svg version="1.0" xmlns="http://www.w3.org/2000/svg"
 width="94.000000pt" height="94.000000pt" viewBox="0 0 94.000000 94.000000"
 preserveAspectRatio="xMidYMid meet">

<g transform="translate(0.000000,94.000000) scale(0.100000,-0.100000)"
fill="#000000" stroke="none">
<path d="M345 803 c-180 -11 -176 -5 -173 -230 2 -130 3 -147 5 -63 4 179 -22
160 219 160 194 0 205 -1 200 -18 -5 -15 3 -21 45 -32 27 -8 52 -18 55 -22 7
-12 44 -10 44 2 0 17 18 11 23 -7 3 -10 5 21 6 68 1 122 -4 128 -139 139 -102
9 -183 10 -285 3z m385 -42 l25 -14 -25 -9 c-14 -5 -41 -18 -60 -27 -29 -15
-73 -20 -258 -26 l-223 -7 3 44 c3 39 6 44 33 50 17 3 131 6 255 5 171 -2 231
-6 250 -16z"/>
<path d="M802 585 c-8 -93 -19 -181 -25 -195 -11 -22 -21 -26 -82 -33 -118
-13 -285 -46 -317 -62 -17 -8 -41 -15 -53 -15 -11 0 -26 -5 -33 -12 -7 -7 -12
-8 -13 -2 0 5 -6 -9 -13 -31 -15 -50 -53 -60 -82 -22 -21 26 -44 25 -45 -1 0
-14 -2 -13 -9 3 -6 14 -9 -5 -9 -58 l-1 -78 73 3 c66 3 72 5 75 26 3 22 4 22
202 22 198 0 199 0 202 -22 3 -21 9 -23 76 -26 l72 -3 0 228 c0 176 3 224 12
215 17 -17 58 -15 58 2 0 8 -16 23 -35 34 l-34 21 -3 88 c-3 83 -4 78 -16 -82z
m-64 -311 c13 -4 22 -14 22 -26 0 -68 -71 -80 -81 -13 -7 39 12 51 59 39z
m-275 -66 l112 0 -91 -15 c-96 -17 -138 -13 -148 12 -4 10 -2 14 5 9 6 -3 61
-6 122 -6z m122 -18 c-3 -5 -12 -10 -18 -10 -7 0 -6 4 3 10 19 12 23 12 15 0z"/>
<path d="M758 420 c-4 -45 8 -40 18 8 4 19 2 32 -4 32 -5 0 -12 -18 -14 -40z"/>
<path d="M698 373 c6 -2 18 -2 25 0 6 3 1 5 -13 5 -14 0 -19 -2 -12 -5z"/>
</g>
</svg>
