<?xml version="1.0" standalone="no"?>
<!DOCTYPE svg PUBLIC "-//W3C//DTD SVG 20010904//EN"
 "http://www.w3.org/TR/2001/REC-SVG-20010904/DTD/svg10.dtd">
<svg version="1.0" xmlns="http://www.w3.org/2000/svg"
 width="94.000000pt" height="94.000000pt" viewBox="0 0 94.000000 94.000000"
 preserveAspectRatio="xMidYMid meet">

<g transform="translate(0.000000,94.000000) scale(0.100000,-0.100000)"
fill="#000000" stroke="none">
<path d="M345 803 c-180 -11 -176 -5 -173 -235 2 -137 3 -153 5 -63 4 185 -21
165 213 165 183 0 230 -6 199 -26 -15 -9 20 -29 89 -49 43 -13 57 -14 68 -4
13 11 15 -1 12 -98 -2 -61 0 -109 5 -106 4 2 7 84 7 182 0 229 6 220 -145 232
-108 8 -180 9 -280 2z m384 -42 c19 -10 21 -15 10 -22 -8 -5 -22 -9 -32 -9
-11 0 -31 -8 -45 -19 -24 -16 -56 -19 -249 -25 l-223 -7 2 41 c1 36 5 41 32
50 48 15 476 7 505 -9z"/>
<path d="M803 585 c-14 -190 -18 -211 -41 -220 -9 -3 -59 -10 -111 -15 -82 -9
-113 -14 -186 -33 -5 -2 -24 -11 -42 -20 -18 -9 -47 -17 -66 -17 -44 0 -49 -7
-32 -40 14 -28 15 -28 132 -30 65 -1 124 -2 130 -3 9 0 10 -4 2 -14 -6 -7 -19
-13 -28 -12 -12 0 -12 2 4 10 15 7 11 8 -15 4 -19 -4 -56 -10 -81 -14 -25 -4
-62 -5 -82 -3 -31 4 -42 11 -60 43 -29 51 -49 54 -62 9 -14 -46 -53 -54 -83
-15 l-20 26 -15 -22 c-14 -19 -15 -20 -20 -2 -3 10 -5 -17 -6 -60 l-1 -78 73
3 c66 3 72 5 75 26 3 22 4 22 202 22 198 0 199 0 202 -22 3 -21 9 -23 76 -26
l72 -3 0 228 c0 176 3 224 12 215 16 -16 58 -15 58 1 -1 6 -15 21 -33 32 -31
20 -32 22 -37 110 l-5 90 -12 -170z m-59 -311 c31 -12 11 -84 -23 -84 -22 0
-38 17 -42 45 -6 39 22 55 65 39z"/>
<path d="M683 373 c9 -2 23 -2 30 0 6 3 -1 5 -18 5 -16 0 -22 -2 -12 -5z"/>
</g>
</svg>
